<svg xmlns="https://www.w3.org/2000/svg">
    <defs>
        <symbol id="chevron-left" aria-hidden="true" focusable="false" xmlns="http://www.w3.org/2000/svg" viewBox="0 0 320 512">
            <path fill="currentColor" d="M34.52 239.03L228.87 44.69c9.37-9.37 24.57-9.37 33.94 0l22.67 22.67c9.36 9.36 9.37 24.52.04 33.9L131.49 256l154.02 154.75c9.34 9.38 9.32 24.54-.04 33.9l-22.67 22.67c-9.37 9.37-24.57 9.37-33.94 0L34.52 272.97c-9.37-9.37-9.37-24.57 0-33.94z"></path>
        </symbol>
        <symbol id="chevron-right" aria-hidden="true" focusable="false" xmlns="http://www.w3.org/2000/svg" viewBox="0 0 320 512">
            <path fill="currentColor" d="M285.476 272.971L91.132 467.314c-9.373 9.373-24.569 9.373-33.941 0l-22.667-22.667c-9.357-9.357-9.375-24.522-.04-33.901L188.505 256 34.484 101.255c-9.335-9.379-9.317-24.544.04-33.901l22.667-22.667c9.373-9.373 24.569-9.373 33.941 0L285.475 239.03c9.373 9.372 9.373 24.568.001 33.941z"></path>
        </symbol>
        <symbol id="download" aria-hidden="true" focusable="false" xmlns="http://www.w3.org/2000/svg" viewBox="0 0 512 512">
            <path fill="currentColor" d="M216 0h80c13.3 0 24 10.7 24 24v168h87.7c17.8 0 26.7 21.5 14.1 34.1L269.7 378.3c-7.5 7.5-19.8 7.5-27.3 0L90.1 226.1c-12.6-12.6-3.7-34.1 14.1-34.1H192V24c0-13.3 10.7-24 24-24zm296 376v112c0 13.3-10.7 24-24 24H24c-13.3 0-24-10.7-24-24V376c0-13.3 10.7-24 24-24h146.7l49 49c20.1 20.1 52.5 20.1 72.6 0l49-49H488c13.3 0 24 10.7 24 24zm-124 88c0-11-9-20-20-20s-20 9-20 20 9 20 20 20 20-9 20-20zm64 0c0-11-9-20-20-20s-20 9-20 20 9 20 20 20 20-9 20-20z"></path>
        </symbol>
        <symbol id="print" aria-hidden="true" focusable="false" xmlns="http://www.w3.org/2000/svg" viewBox="0 0 512 512">
            <path fill="currentColor" d="M448 192V77.25c0-8.49-3.37-16.62-9.37-22.63L393.37 9.37c-6-6-14.14-9.37-22.63-9.37H96C78.33 0 64 14.33 64 32v160c-35.35 0-64 28.65-64 64v112c0 8.84 7.16 16 16 16h48v96c0 17.67 14.33 32 32 32h320c17.67 0 32-14.33 32-32v-96h48c8.84 0 16-7.16 16-16V256c0-35.35-28.65-64-64-64zm-64 256H128v-96h256v96zm0-224H128V64h192v48c0 8.84 7.16 16 16 16h48v96zm48 72c-13.25 0-24-10.75-24-24 0-13.26 10.75-24 24-24s24 10.74 24 24c0 13.25-10.75 24-24 24z"></path>
        </symbol>

        <symbol id="chevron-down" class="icon" width="32" height="32" viewBox="0 0 24 24" stroke-width="1.5" stroke="#2c3e50" fill="none" stroke-linecap="round" stroke-linejoin="round">
            <title>chevron-down</title>
            <path stroke="none" d="M0 0h24v24H0z" fill="none"/>
            <polyline points="6 9 12 15 18 9" />
        </symbol>
        <symbol id="chevron-left" class="icon" width="32" height="32" viewBox="0 0 24 24" stroke-width="1.5" stroke="#2c3e50" fill="none" stroke-linecap="round" stroke-linejoin="round">
            <title>chevron-left</title>
            <path stroke="none" d="M0 0h24v24H0z" fill="none"/>
            <polyline points="15 6 9 12 15 18" />
        </symbol>
        <symbol id="chevron-right" class="icon" width="32" height="32" viewBox="0 0 24 24" stroke-width="1.5" stroke="#2c3e50" fill="none" stroke-linecap="round" stroke-linejoin="round">
            <title>chevron-right</title>
            <path stroke="none" d="M0 0h24v24H0z" fill="none"/>
            <polyline points="9 6 15 12 9 18" />
        </symbol>
        <symbol id="chevron-up" class="icon" width="32" height="32" viewBox="0 0 24 24" stroke-width="1.5" stroke="#2c3e50" fill="none" stroke-linecap="round" stroke-linejoin="round">
            <title>chrevron-up</title>
            <path stroke="none" d="M0 0h24v24H0z" fill="none"/>
            <polyline points="6 15 12 9 18 15" />
        </symbol>
        <symbol id="chevrons-right" class="icon" width="32" height="32" viewBox="0 0 24 24" stroke-width="1.5" stroke="#2c3e50" fill="none" stroke-linecap="round" stroke-linejoin="round">
            <title>chevrons-right</title>
            <path stroke="none" d="M0 0h24v24H0z" fill="none"/>
            <polyline points="7 7 12 12 7 17" />
            <polyline points="13 7 18 12 13 17" />
        </symbol>
        <symbol id="chevrons-left" class="icon" width="32" height="32" viewBox="0 0 24 24" stroke-width="1.5" stroke="#2c3e50" fill="none" stroke-linecap="round" stroke-linejoin="round">
            <title>chevrons-left</title>
            <path stroke="none" d="M0 0h24v24H0z" fill="none"/>
            <polyline points="11 7 6 12 11 17" />
            <polyline points="17 7 12 12 17 17" />
        </symbol>

        <symbol id="x" class="icon" width="32" height="32" viewBox="0 0 24 24" stroke-width="1.5" stroke="#2c3e50" fill="none" stroke-linecap="round" stroke-linejoin="round">
            <title>x</title>
            <path stroke="none" d="M0 0h24v24H0z" fill="none"/>
            <line x1="18" y1="6" x2="6" y2="18" />
            <line x1="6" y1="6" x2="18" y2="18" />
        </symbol>
        <symbol id="printer" class="icon" width="32" height="32" viewBox="0 0 24 24" stroke-width="1.5" stroke="#2c3e50" fill="none" stroke-linecap="round" stroke-linejoin="round">
            <title>printer</title>
            <path stroke="none" d="M0 0h24v24H0z" fill="none"/>
            <path d="M17 17h2a2 2 0 0 0 2 -2v-4a2 2 0 0 0 -2 -2h-14a2 2 0 0 0 -2 2v4a2 2 0 0 0 2 2h2" />
            <path d="M17 9v-4a2 2 0 0 0 -2 -2h-6a2 2 0 0 0 -2 2v4" />
            <rect x="7" y="13" width="10" height="8" rx="2" />
        </symbol>
        <symbol id="star" class="icon" width="32" height="32" viewBox="0 0 24 24" stroke-width="1.5" stroke="#2c3e50" fill="none" stroke-linecap="round" stroke-linejoin="round">
            <title>star</title>
            <path stroke="none" d="M0 0h24v24H0z" fill="none"/>
            <path d="M12 17.75l-6.172 3.245l1.179 -6.873l-5 -4.867l6.9 -1l3.086 -6.253l3.086 6.253l6.9 1l-5 4.867l1.179 6.873z" />
        </symbol>
        <symbol id="share" class="icon" width="32" height="32" viewBox="0 0 24 24" stroke-width="1.5" stroke="#2c3e50" fill="none" stroke-linecap="round" stroke-linejoin="round">
            <title>share</title>
            <path stroke="none" d="M0 0h24v24H0z" fill="none"/>
            <circle cx="6" cy="12" r="3" />
            <circle cx="18" cy="6" r="3" />
            <circle cx="18" cy="18" r="3" />
            <line x1="8.7" y1="10.7" x2="15.3" y2="7.3" />
            <line x1="8.7" y1="13.3" x2="15.3" y2="16.7" />
        </symbol>

        <symbol id="search" class="icon" width="32" height="32" viewBox="0 0 24 24" stroke-width="1.5" stroke="#2c3e50" fill="none" stroke-linecap="round" stroke-linejoin="round">
            <title>search</title>
            <path stroke="none" d="M0 0h24v24H0z" fill="none"/>
            <circle cx="10" cy="10" r="7" />
            <line x1="21" y1="21" x2="15" y2="15" />
        </symbol>
        <symbol id="file-search" class="icon" width="32" height="32" viewBox="0 0 24 24" stroke-width="1.5" stroke="#2c3e50" fill="none" stroke-linecap="round" stroke-linejoin="round">
            <title>file-search</title>
            <path stroke="none" d="M0 0h24v24H0z" fill="none"/>
            <path d="M14 3v4a1 1 0 0 0 1 1h4" />
            <path d="M12 21h-5a2 2 0 0 1 -2 -2v-14a2 2 0 0 1 2 -2h7l5 5v4.5" />
            <circle cx="16.5" cy="17.5" r="2.5" />
            <line x1="18.5" y1="19.5" x2="21" y2="22" />
        </symbol>
        <symbol id="bookmark" class="icon" width="32" height="32" viewBox="0 0 24 24" stroke-width="1.5" stroke="#2c3e50" fill="none" stroke-linecap="round" stroke-linejoin="round">
            <title>bookmark</title>
            <path stroke="none" d="M0 0h24v24H0z" fill="none"/>
            <path d="M9 4h6a2 2 0 0 1 2 2v14l-5-3l-5 3v-14a2 2 0 0 1 2 -2" />
        </symbol>
        <symbol id="save" class="icon" width="32" height="32" viewBox="0 0 24 24" stroke-width="1.5" stroke="#2c3e50" fill="none" stroke-linecap="round" stroke-linejoin="round">
            <title>device-floppy</title>
            <path stroke="none" d="M0 0h24v24H0z" fill="none"/>
            <path d="M6 4h10l4 4v10a2 2 0 0 1 -2 2h-12a2 2 0 0 1 -2 -2v-12a2 2 0 0 1 2 -2" />
            <circle cx="12" cy="14" r="2" />
            <polyline points="14 4 14 8 8 8 8 4" />
        </symbol>
        <symbol id="corner-left-up" class="icon" width="32" height="32" viewBox="0 0 24 24" stroke-width="1.5" stroke="#2c3e50" fill="none" stroke-linecap="round" stroke-linejoin="round">
            <title>corner-left-up</title>
            <path stroke="none" d="M0 0h24v24H0z" fill="none"/>
            <path d="M18 18h-6a3 3 0 0 1 -3 -3v-10l-4 4m8 0l-4 -4" />
        </symbol>
    </defs>
</svg>