<svg xmlns="https://www.w3.org/2000/svg">
    <defs>
        <symbol id="fa-test" xmlns="http://www.w3.org/2000/svg" viewBox="0 0 320 512">
            <path d="M34.52 239.03L228.87 44.69c9.37-9.37 24.57-9.37 33.94 0l22.67 22.67c9.36 9.36 9.37 24.52.04 33.9L131.49 256l154.02 154.75c9.34 9.38 9.32 24.54-.04 33.9l-22.67 22.67c-9.37 9.37-24.57 9.37-33.94 0L34.52 272.97c-9.37-9.37-9.37-24.57 0-33.94z"></path>
        </symbol>
        <symbol id="chevron-down" class="icon" width="32" height="32" viewBox="0 0 24 24" stroke-width="1.5" stroke="#2c3e50" fill="none" stroke-linecap="round" stroke-linejoin="round">
            <title>chevron-down</title>
            <path stroke="none" d="M0 0h24v24H0z" fill="none"/>
            <polyline points="6 9 12 15 18 9" />
        </symbol>
        <symbol id="chevron-left" class="icon" width="32" height="32" viewBox="0 0 24 24" stroke-width="1.5" stroke="#2c3e50" fill="none" stroke-linecap="round" stroke-linejoin="round">
            <title>chevron-left</title>
            <path stroke="none" d="M0 0h24v24H0z" fill="none"/>
            <polyline points="15 6 9 12 15 18" />
        </symbol>
        <symbol id="chevron-right" class="icon" width="32" height="32" viewBox="0 0 24 24" stroke-width="1.5" stroke="#2c3e50" fill="none" stroke-linecap="round" stroke-linejoin="round">
            <title>chevron-right</title>
            <path stroke="none" d="M0 0h24v24H0z" fill="none"/>
            <polyline points="9 6 15 12 9 18" />
        </symbol>
        <symbol id="chevron-up" class="icon" width="32" height="32" viewBox="0 0 24 24" stroke-width="1.5" stroke="#2c3e50" fill="none" stroke-linecap="round" stroke-linejoin="round">
            <title>chrevron-up</title>
            <path stroke="none" d="M0 0h24v24H0z" fill="none"/>
            <polyline points="6 15 12 9 18 15" />
        </symbol>
        <symbol id="chevrons-right" class="icon" width="32" height="32" viewBox="0 0 24 24" stroke-width="1.5" stroke="#2c3e50" fill="none" stroke-linecap="round" stroke-linejoin="round">
            <title>chevrons-right</title>
            <path stroke="none" d="M0 0h24v24H0z" fill="none"/>
            <polyline points="7 7 12 12 7 17" />
            <polyline points="13 7 18 12 13 17" />
        </symbol>
        <symbol id="chevrons-left" class="icon" width="32" height="32" viewBox="0 0 24 24" stroke-width="1.5" stroke="#2c3e50" fill="none" stroke-linecap="round" stroke-linejoin="round">
            <title>chevrons-left</title>
            <path stroke="none" d="M0 0h24v24H0z" fill="none"/>
            <polyline points="11 7 6 12 11 17" />
            <polyline points="17 7 12 12 17 17" />
        </symbol>

        <symbol id="x" class="icon" width="32" height="32" viewBox="0 0 24 24" stroke-width="1.5" stroke="#2c3e50" fill="none" stroke-linecap="round" stroke-linejoin="round">
            <title>x</title>
            <path stroke="none" d="M0 0h24v24H0z" fill="none"/>
            <line x1="18" y1="6" x2="6" y2="18" />
            <line x1="6" y1="6" x2="18" y2="18" />
        </symbol>
        <symbol id="printer" class="icon" width="32" height="32" viewBox="0 0 24 24" stroke-width="1.5" stroke="#2c3e50" fill="none" stroke-linecap="round" stroke-linejoin="round">
            <title>printer</title>
            <path stroke="none" d="M0 0h24v24H0z" fill="none"/>
            <path d="M17 17h2a2 2 0 0 0 2 -2v-4a2 2 0 0 0 -2 -2h-14a2 2 0 0 0 -2 2v4a2 2 0 0 0 2 2h2" />
            <path d="M17 9v-4a2 2 0 0 0 -2 -2h-6a2 2 0 0 0 -2 2v4" />
            <rect x="7" y="13" width="10" height="8" rx="2" />
        </symbol>
        <symbol id="star" class="icon" width="32" height="32" viewBox="0 0 24 24" stroke-width="1.5" stroke="#2c3e50" fill="none" stroke-linecap="round" stroke-linejoin="round">
            <title>star</title>
            <path stroke="none" d="M0 0h24v24H0z" fill="none"/>
            <path d="M12 17.75l-6.172 3.245l1.179 -6.873l-5 -4.867l6.9 -1l3.086 -6.253l3.086 6.253l6.9 1l-5 4.867l1.179 6.873z" />
        </symbol>
        <symbol id="share" class="icon" width="32" height="32" viewBox="0 0 24 24" stroke-width="1.5" stroke="#2c3e50" fill="none" stroke-linecap="round" stroke-linejoin="round">
            <title>share</title>
            <path stroke="none" d="M0 0h24v24H0z" fill="none"/>
            <circle cx="6" cy="12" r="3" />
            <circle cx="18" cy="6" r="3" />
            <circle cx="18" cy="18" r="3" />
            <line x1="8.7" y1="10.7" x2="15.3" y2="7.3" />
            <line x1="8.7" y1="13.3" x2="15.3" y2="16.7" />
        </symbol>

        <symbol id="search" class="icon" width="32" height="32" viewBox="0 0 24 24" stroke-width="1.5" stroke="#2c3e50" fill="none" stroke-linecap="round" stroke-linejoin="round">
            <title>search</title>
            <path stroke="none" d="M0 0h24v24H0z" fill="none"/>
            <circle cx="10" cy="10" r="7" />
            <line x1="21" y1="21" x2="15" y2="15" />
        </symbol>
        <symbol id="file-search" class="icon" width="32" height="32" viewBox="0 0 24 24" stroke-width="1.5" stroke="#2c3e50" fill="none" stroke-linecap="round" stroke-linejoin="round">
            <title>file-search</title>
            <path stroke="none" d="M0 0h24v24H0z" fill="none"/>
            <path d="M14 3v4a1 1 0 0 0 1 1h4" />
            <path d="M12 21h-5a2 2 0 0 1 -2 -2v-14a2 2 0 0 1 2 -2h7l5 5v4.5" />
            <circle cx="16.5" cy="17.5" r="2.5" />
            <line x1="18.5" y1="19.5" x2="21" y2="22" />
        </symbol>
        <symbol id="bookmark" class="icon" width="32" height="32" viewBox="0 0 24 24" stroke-width="1.5" stroke="#2c3e50" fill="none" stroke-linecap="round" stroke-linejoin="round">
            <title>bookmark</title>
            <path stroke="none" d="M0 0h24v24H0z" fill="none"/>
            <path d="M9 4h6a2 2 0 0 1 2 2v14l-5-3l-5 3v-14a2 2 0 0 1 2 -2" />
        </symbol>
        <symbol id="save" class="icon" width="32" height="32" viewBox="0 0 24 24" stroke-width="1.5" stroke="#2c3e50" fill="none" stroke-linecap="round" stroke-linejoin="round">
            <title>device-floppy</title>
            <path stroke="none" d="M0 0h24v24H0z" fill="none"/>
            <path d="M6 4h10l4 4v10a2 2 0 0 1 -2 2h-12a2 2 0 0 1 -2 -2v-12a2 2 0 0 1 2 -2" />
            <circle cx="12" cy="14" r="2" />
            <polyline points="14 4 14 8 8 8 8 4" />
        </symbol>
        <symbol id="corner-left-up" class="icon" width="32" height="32" viewBox="0 0 24 24" stroke-width="1.5" stroke="#2c3e50" fill="none" stroke-linecap="round" stroke-linejoin="round">
            <title>corner-left-up</title>
            <path stroke="none" d="M0 0h24v24H0z" fill="none"/>
            <path d="M18 18h-6a3 3 0 0 1 -3 -3v-10l-4 4m8 0l-4 -4" />
        </symbol>
    </defs>
</svg>